<svg id="Pagina_inicial_Escritorio" data-name="Pagina inicial Escritorio" xmlns="http://www.w3.org/2000/svg" xmlns:xlink="http://www.w3.org/1999/xlink" viewBox="0 0 317.9 356.5"><defs><style>.cls-1{fill:#573d7d;}.cls-2{fill:url(#Degradado_sin_nombre_28);}.cls-3{fill:#fff;}</style><linearGradient id="Degradado_sin_nombre_28" x1="1203.19" y1="1521.79" x2="1203.19" y2="1846.8" gradientUnits="userSpaceOnUse"><stop offset="0.03" stop-color="#49006c"/><stop offset="1" stop-color="#25003e"/></linearGradient></defs><title>ico-bootstrap4</title><path class="cls-1" d="M1340.1,1577.5L1224.9,1511c-12-6.9-31.6-6.9-43.7,0l-115.2,66.5c-12,6.9-21.8,23.9-21.8,37.8v137.4c0,13.9,9.8,30.9,21.8,37.8l115.3,66.5c12,6.9,31.7,6.9,43.7,0l115.3-66.5c12-6.9,21.8-23.9,21.8-37.8V1615.4C1362,1601.5,1352.2,1584.5,1340.1,1577.5Z" transform="translate(-1044.1 -1505.8)"/><path class="cls-2" d="M1328.2,1587.2l-105.1-60.7c-10.9-6.3-28.9-6.3-39.8,0l-105.1,60.7c-10.9,6.3-19.9,21.8-19.9,34.5v125.2c0,12.6,9,28.2,19.9,34.5l105.1,60.7c10.9,6.3,28.9,6.3,39.8,0l105.1-60.7c10.9-6.3,19.9-21.8,19.9-34.5V1621.7C1348.1,1609,1339.1,1593.5,1328.2,1587.2Z" transform="translate(-1044.1 -1505.8)"/><path class="cls-3" d="M1203,1661.5h-12.1v19.7H1203q6.2,0,9.3-2.5t3.2-7.5q0-4.9-3.1-7.3T1203,1661.5Zm40.1-70.8h-89.2a21.3,21.3,0,0,0-21.3,21.3v89.7a21.3,21.3,0,0,0,21.3,21.3H1243a21.3,21.3,0,0,0,21.3-21.3V1612A21.3,21.3,0,0,0,1243.1,1590.7Zm-14.8,98.4q-7.8,5.3-23.8,5.3h-34.2v-75.3h30.9q16.7,0,24.1,4.7t7.5,15.2a15.9,15.9,0,0,1-2.7,9.4,16,16,0,0,1-7.9,5.7,18.4,18.4,0,0,1,10.3,6.7,19.6,19.6,0,0,1,3.6,12Q1236.1,1683.8,1228.2,1689.1Zm-18.6-42.8a8.2,8.2,0,0,0,0-11.9q-2.5-2.1-7.4-2.1h-11.4v15.9h11.4Q1207.1,1648.3,1209.7,1646.3Z" transform="translate(-1044.1 -1505.8)"/><path class="cls-3" d="M1102.4,1739.6h7q4.9,0,7.1,1.5a5.2,5.2,0,0,1,2.2,4.7,5.4,5.4,0,0,1-1.2,3.6,5.9,5.9,0,0,1-3.6,1.9v0.2q5.7,1,5.7,5.9a6.4,6.4,0,0,1-2.2,5.2,9.6,9.6,0,0,1-6.3,1.9h-8.7v-24.8Zm2.9,10.6h4.8a7.7,7.7,0,0,0,4.4-1,3.7,3.7,0,0,0,1.3-3.2,3.3,3.3,0,0,0-1.5-3,9.3,9.3,0,0,0-4.8-.9h-4.2v8.1Zm0,2.4v9.3h5.2a7.4,7.4,0,0,0,4.5-1.2,4.3,4.3,0,0,0,1.5-3.6,3.9,3.9,0,0,0-1.6-3.4,8.3,8.3,0,0,0-4.7-1.1h-4.9Z" transform="translate(-1044.1 -1505.8)"/><path class="cls-3" d="M1146.5,1751.9q0,6-3,9.4a10.6,10.6,0,0,1-8.4,3.4q-5.5,0-8.5-3.4t-3-9.5q0-6.1,3-9.4t8.5-3.3a10.6,10.6,0,0,1,8.4,3.4Q1146.5,1746,1146.5,1751.9Zm-19.8,0q0,5,2.1,7.7a8.8,8.8,0,0,0,12.5,0q2.1-2.6,2.1-7.7t-2.1-7.6a7.5,7.5,0,0,0-6.2-2.6,7.7,7.7,0,0,0-6.3,2.6Q1126.7,1747,1126.7,1751.9Z" transform="translate(-1044.1 -1505.8)"/><path class="cls-3" d="M1173.6,1751.9q0,6-3,9.4a10.6,10.6,0,0,1-8.4,3.4q-5.5,0-8.5-3.4t-3-9.5q0-6.1,3-9.4t8.5-3.3a10.6,10.6,0,0,1,8.4,3.4Q1173.6,1746,1173.6,1751.9Zm-19.8,0q0,5,2.1,7.7a8.8,8.8,0,0,0,12.5,0q2.1-2.6,2.1-7.7t-2.1-7.6a7.5,7.5,0,0,0-6.2-2.6,7.7,7.7,0,0,0-6.3,2.6Q1153.8,1747,1153.8,1751.9Z" transform="translate(-1044.1 -1505.8)"/><path class="cls-3" d="M1186.8,1764.4h-2.9v-22.3H1176v-2.6h18.6v2.6h-7.9v22.3Z" transform="translate(-1044.1 -1505.8)"/><path class="cls-3" d="M1212.4,1757.8a6.1,6.1,0,0,1-2.4,5.1,10.3,10.3,0,0,1-6.5,1.8,16.2,16.2,0,0,1-6.8-1.1v-2.8a17.9,17.9,0,0,0,3.3,1,17.5,17.5,0,0,0,3.6.4,7.2,7.2,0,0,0,4.3-1.1,3.6,3.6,0,0,0,1.5-3,3.9,3.9,0,0,0-.5-2.1,4.8,4.8,0,0,0-1.7-1.5,24.2,24.2,0,0,0-3.7-1.6,11.8,11.8,0,0,1-5-2.9,6.5,6.5,0,0,1-1.5-4.4,5.5,5.5,0,0,1,2.2-4.6,9,9,0,0,1,5.7-1.7,16.8,16.8,0,0,1,6.8,1.4l-0.9,2.5a15.4,15.4,0,0,0-6-1.3,5.8,5.8,0,0,0-3.6,1,3.2,3.2,0,0,0-1.3,2.7,4.2,4.2,0,0,0,.5,2.1,4.5,4.5,0,0,0,1.6,1.5,20,20,0,0,0,3.5,1.5,13.7,13.7,0,0,1,5.4,3A5.9,5.9,0,0,1,1212.4,1757.8Z" transform="translate(-1044.1 -1505.8)"/><path class="cls-3" d="M1225.1,1764.4h-2.9v-22.3h-7.9v-2.6H1233v2.6h-7.9v22.3Z" transform="translate(-1044.1 -1505.8)"/><path class="cls-3" d="M1239.6,1754.1v10.3h-2.9v-24.8h6.8q4.6,0,6.8,1.7a6.3,6.3,0,0,1,2.2,5.3q0,4.9-5,6.7l6.7,11.2h-3.4l-6-10.3h-5.2Zm0-2.5h4a6.8,6.8,0,0,0,4.5-1.2,4.5,4.5,0,0,0,1.4-3.6,4.1,4.1,0,0,0-1.5-3.5,7.9,7.9,0,0,0-4.7-1.1h-3.8v9.5Z" transform="translate(-1044.1 -1505.8)"/><path class="cls-3" d="M1273.8,1764.4l-3.1-7.9h-10l-3.1,7.9h-2.9l9.8-24.9h2.4l9.8,24.9h-3Zm-4-10.5-2.9-7.7q-0.6-1.5-1.2-3.6a32,32,0,0,1-1.1,3.6l-2.9,7.7h8Z" transform="translate(-1044.1 -1505.8)"/><path class="cls-3" d="M1295.9,1746.8a7,7,0,0,1-2.6,5.8q-2.6,2-7.4,2h-2.9v9.8h-2.9v-24.8h6.4Q1295.9,1739.6,1295.9,1746.8Zm-12.9,5.3h2.6q3.8,0,5.6-1.2a4.6,4.6,0,0,0,1.7-4,4.3,4.3,0,0,0-1.6-3.7,8.4,8.4,0,0,0-5-1.2h-3.2v10.1Z" transform="translate(-1044.1 -1505.8)"/><circle class="cls-1" cx="215.9" cy="93.5" r="29"/><path class="cls-3" d="M1259.6,1614.3v-6H1247v-5.8l11.5-17.8h8.4v18.1h3.2v5.4h-3.2v6h-7.3Zm0.2-11.2v-11.6l-7.5,11.6h7.5Z" transform="translate(-1044.1 -1505.8)"/></svg>